<svg xmlns="http://www.w3.org/2000/svg" viewBox="0 0 200 200" fill="none">
  <path d="M100 30C81.2 30 65.5 45.7 65.5 64.5C65.5 83.3 81.2 99 100 99C118.8 99 134.5 83.3 134.5 64.5C134.5 45.7 118.8 30 100 30ZM100 89C86.7 89 75.5 77.8 75.5 64.5C75.5 51.2 86.7 40 100 40C113.3 40 124.5 51.2 124.5 64.5C124.5 77.8 113.3 89 100 89Z" fill="#4A88D0"/>
  <path d="M155.5 85L145.5 75C143.9 73.4 141.3 73.4 139.7 75C138.1 76.6 138.1 79.2 139.7 80.8L149.7 90.8C151.3 92.4 153.9 92.4 155.5 90.8C157.1 89.2 157.1 86.6 155.5 85Z" fill="#4A88D0"/>
  <path d="M60.3 75C58.7 73.4 56.1 73.4 54.5 75L44.5 85C42.9 86.6 42.9 89.2 44.5 90.8C46.1 92.4 48.7 92.4 50.3 90.8L60.3 80.8C61.9 79.2 61.9 76.6 60.3 75Z" fill="#4A88D0"/>
  <path d="M100 100C91.7 100 85 106.7 85 115V125H115V115C115 106.7 108.3 100 100 100Z" fill="#4A88D0"/>
  <path d="M170 115H140V125H170C172.8 125 175 127.2 175 130V160C175 162.8 172.8 165 170 165H30C27.2 165 25 162.8 25 160V130C25 127.2 27.2 125 30 125H60V115H30C21.7 115 15 121.7 15 130V160C15 168.3 21.7 175 30 175H170C178.3 175 185 168.3 185 160V130C185 121.7 178.3 115 170 115Z" fill="#4A88D0"/>
  <path d="M130 140H70C67.2 140 65 142.2 65 145C65 147.8 67.2 150 70 150H130C132.8 150 135 147.8 135 145C135 142.2 132.8 140 130 140Z" fill="#4A88D0"/>
</svg>
